<?xml version="1.0" encoding="UTF-8"?><svg id="Layer_1" xmlns="http://www.w3.org/2000/svg" viewBox="0 0 512 512"><defs><style>.cls-1{fill:#fff;}</style></defs><path class="cls-1" d="M11.69,11.64v139.46h139.46V11.64H11.69ZM93.63,129.27h-20.92V54.18c-5.18,4.18-10.76,7.82-16.67,10.88v-18.55c7.23-3.73,13.63-8.88,18.83-15.13h18.76v97.9Z"/><path class="cls-1" d="M66.38,431.73l.72-5.21c-3.64,4.67-7.47,6.64-12.64,6.64-13.21,0-14.13-15.26-7.74-48.11,6.31-32.49,13.96-45.23,25.6-45.23,5.89,0,7.91,2.15,10.03,7.54l8.83-45.42h13.5l-22.47,115.6c-.91,4.67-1.74,9.69-2.33,14.18h-13.5ZM77.96,369.99c1.67-8.62,2.41-17.59-3.48-17.59s-8.77,5.92-13.96,32.67c-5.79,29.8-6.29,36.8.03,36.8s9-8.62,11.62-22.08l5.79-29.8Z"/><path class="cls-1" d="M84.63,431.73l2.44-12.57,32.56-64.8h-19.68l2.55-13.1h32.32l-2.86,14.72-31.43,62.65h19.68l-2.55,13.1h-33.04Z"/><path class="cls-1" d="M365.96,434.04c-13.71-1.85-21.35-7.23-25.55-18.01-1.43-3.66-1.77-5.86-1.98-12.7-.3-9.81-.19-10.58,5.96-42.75l4.79-25.02h26.48l-.47,2.17c-2.71,12.72-9.13,47.93-9.42,51.69-.92,11.93,4.02,18.62,13.79,18.64,8.87.02,15.7-6.1,19.24-17.22.78-2.45,3.95-17.39,7.06-33.21,6.12-31.27,7.12-40.17,5.57-49.84-.43-2.72-7.03-26.39-14.66-52.61-7.63-26.23-14.26-49.27-14.72-51.23-.51-2.15-.84-8.23-.84-15.37,0-11.73.03-11.99,4.17-33.1,6.8-34.71,7.22-36.45,11.13-45.99,3.1-7.58,4.43-9.85,8.77-15.05,8.35-9.99,17.71-14.99,30.99-16.6,6.98-.83,17.5-.07,22.61,1.65,12.07,4.06,18.94,14.84,18.93,29.72,0,5.82-2.36,20.95-6.56,41.92l-3.86,19.31-13.05.22c-9.94.16-13.05-.02-13.05-.75,0-.53,1.94-11.13,4.32-23.56,4.83-25.23,5.39-32.13,3.02-36.75-2.09-4.08-4.83-5.36-11.31-5.32-6.45.04-9.59,1.51-13.52,6.31-3.52,4.3-5.34,10.51-10.48,35.82-4.04,19.88-4.77,24.57-5.05,32.38-.2,5.45-.02,10.85.44,13.4.41,2.35,6.87,24.66,14.32,49.58,7.45,24.93,14.09,47.63,14.74,50.44.89,3.86,1.17,8.05,1.15,16.95l-.02,11.82-6.41,34.68c-3.52,19.07-7.19,37.05-8.14,39.96-3.18,9.72-10.31,20.69-17.57,27.02-4.6,4.01-12.08,8.18-17.74,9.89-6.1,1.85-15.83,2.49-23.03,1.52Z"/><path class="cls-1" d="M126.42,431.51c0-.11,15.19-79.11,33.74-175.55l33.73-175.35,19.4-.21c10.67-.11,19.4.02,19.4.28,0,.8-23.84,292.76-24.28,297.24-.24,2.56-.15,4.14.27,4.14.37,0,.82-.61,1.01-1.38s7.51-38.61,16.26-84.13l28.75-149.54,12.85-66.79h23.07l-.3,1.78c-.15.96-15.36,80.06-33.77,175.75l-33.48,173.97h-38.13l.31-2.56c.3-2.38,22.1-264.52,24.58-295.56.98-12.29.98-15.9,0-14.69-.25.32-60.18,311.32-60.18,312.32,0,.27-5.23.49-11.62.49s-11.62-.09-11.6-.19h0ZM267.5,429.16c.23-1.42,14.27-74.39,31.19-162.17l30.77-159.6-15.24-.21c-11.73-.16-15.18-.44-14.96-1.18.9-4.31,1.75-8.64,2.53-12.98l2.24-12.01h87.44l-.47,2.16c-.26,1.19-1.4,6.96-2.53,12.81l-2.07,10.64-15.28.21-15.29.21-31.21,162.14-31.21,162.13-13.17.22-13.17.21.42-2.58Z"/><path class="cls-1" d="M126.43,431.51c0-.11,15.19-79.11,33.75-175.55l33.73-175.35,19.39-.21c10.66-.11,19.39,0,19.39.26,0,.25-5.54,68.04-12.3,150.65-6.77,82.61-12.13,150.4-11.92,150.65s.59.04.84-.45c.26-.5,13.47-68.49,29.36-151.09l28.89-150.2h23.06l-.3,1.77c-.16.96-15.36,80.06-33.78,175.75l-33.49,173.97h-38.04l.32-3.35c3.21-34.16,25.64-309.21,25.24-309.41-.31-.16-.67-.16-.79,0-.24.28-60.14,311.34-60.14,312.25,0,.28-5.23.51-11.62.51s-11.62-.09-11.6-.19Z"/></svg>